<svg width="24" height="24" viewBox="0 0 24 24" fill="none" xmlns="http://www.w3.org/2000/svg">
<g clip-path="url(#clip0_5_198)">
<path d="M22 12.239C22 11.5651 21.9333 10.8695 21.8222 10.2173H12.2V14.0651H17.7111C17.4888 15.3042 16.7555 16.3912 15.6666 17.0869L18.9555 19.5869C20.8888 17.826 22 15.2608 22 12.239Z" fill="#1C1C1E"/>
<path d="M12.2 21.9783C14.9555 21.9783 17.2666 21.087 18.9555 19.5652L15.6666 17.087C14.7555 17.6957 13.5778 18.0435 12.2 18.0435C9.53331 18.0435 7.28887 16.2826 6.46664 13.9348L3.08887 16.4783C4.8222 19.8479 8.33331 21.9783 12.2 21.9783Z" fill="#1C1C1E"/>
<path d="M6.46666 13.913C6.04444 12.6739 6.04444 11.3261 6.46666 10.0869L3.08889 7.52173C1.64444 10.3478 1.64444 13.6739 3.08889 16.4783L6.46666 13.913Z" fill="#1C1C1E"/>
<path d="M12.2 5.97814C13.6444 5.9564 15.0666 6.49988 16.1111 7.47814L19.0222 4.60858C17.1778 2.91292 14.7333 1.99988 12.2 2.02162C8.33331 2.02162 4.8222 4.15205 3.08887 7.52162L6.46664 10.0868C7.28887 7.71727 9.53331 5.97814 12.2 5.97814Z" fill="#1C1C1E"/>
</g>
<defs>
<clipPath id="clip0_5_198">
<rect width="20" height="20" fill="white" transform="translate(2 2)"/>
</clipPath>
</defs>
</svg>
