<svg width="24" height="24" viewBox="0 0 24 24" fill="none" xmlns="http://www.w3.org/2000/svg">
<path d="M5 13.25C5.9665 13.25 6.75 14.0335 6.75 15V17C6.75 17.9665 5.9665 18.75 5 18.75H3C2.0335 18.75 1.25 17.9665 1.25 17V15C1.25 14.0335 2.0335 13.25 3 13.25H5ZM22 17.25C22.4142 17.25 22.75 17.5858 22.75 18C22.75 18.4142 22.4142 18.75 22 18.75H10C9.58579 18.75 9.25 18.4142 9.25 18C9.25 17.5858 9.58579 17.25 10 17.25H22ZM16 13.25C16.4142 13.25 16.75 13.5858 16.75 14C16.75 14.4142 16.4142 14.75 16 14.75H10C9.58579 14.75 9.25 14.4142 9.25 14C9.25 13.5858 9.58579 13.25 10 13.25H16ZM5 5.25C5.9665 5.25 6.75 6.0335 6.75 7V9C6.75 9.9665 5.9665 10.75 5 10.75H3C2.0335 10.75 1.25 9.9665 1.25 9V7C1.25 6.0335 2.0335 5.25 3 5.25H5ZM22 9.25C22.4142 9.25 22.75 9.58579 22.75 10C22.75 10.4142 22.4142 10.75 22 10.75H10C9.58579 10.75 9.25 10.4142 9.25 10C9.25 9.58579 9.58579 9.25 10 9.25H22ZM16 5.25C16.4142 5.25 16.75 5.58579 16.75 6C16.75 6.41421 16.4142 6.75 16 6.75H10C9.58579 6.75 9.25 6.41421 9.25 6C9.25 5.58579 9.58579 5.25 10 5.25H16Z" fill="#28303F"/>
</svg>
